<svg width="180" height="56" viewBox="0 0 180 56" fill="none" xmlns="http://www.w3.org/2000/svg">
<g clip-path="url(#clip0_213_1097)">
<path d="M83.3569 55.7592H75.9513C75.6378 55.7592 75.3812 55.5043 75.3812 55.1927V33.1479C70.8604 33.6747 69.5605 33.6209 64.6007 32.91C60.8352 41.2515 51.4257 55.2579 40.8133 54.0314C33.2624 53.159 30.7625 39.7871 30.3948 33.7144C28.0631 40.6029 23.5821 50.3833 16.3476 53.2667C-0.78959 60.0957 -0.410474 27.4916 0.210933 18.3116C0.447524 14.8362 1.13449 6.75249 2.34595 3.75578C3.87666 -0.0170223 10.2931 0.039626 10.963 3.67647C11.4476 6.31063 10.1734 10.7009 9.89405 13.505C9.11302 21.3112 7.90441 34.3489 10.6095 41.6197C15.1589 53.853 23.1745 34.0401 24.7024 29.9019C26.8687 24.0388 28.3082 18.0454 29.6907 11.9613C30.6627 7.68719 30.258 0.914847 36.2297 0.90635C40.0351 0.900685 40.3231 3.30542 40.0694 6.43242C39.1943 17.2212 36.9794 27.8598 39.009 38.8694C40.2204 45.4435 44.4705 47.9757 49.6185 42.7697C53.0704 39.2801 55.6216 34.2837 57.7453 29.9161C49.7439 25.2766 47.9567 13.2161 52.2695 5.54304C56.4511 -1.89776 67.8274 -2.21782 70.1164 6.86012C71.6927 13.1198 69.2755 20.3142 67.6935 26.3642C67.6935 26.3642 69.7088 26.8967 71.5188 27.0015C73.4999 27.1148 75.3841 26.9307 75.3841 26.9307V22.4102C75.3841 22.0986 75.6406 21.8437 75.9542 21.8437H83.3569C83.6705 21.8437 83.927 22.0986 83.927 22.4102V55.1927C83.9299 55.5043 83.6762 55.7592 83.3598 55.7592H83.3569ZM60.5729 23.5375C61.6618 19.5041 63.2353 15.1931 62.8647 10.9502C62.4714 6.43809 58.8541 5.75547 57.2236 9.89365C56.0321 12.9215 56.3485 18.0567 57.959 20.9061C58.1899 21.3112 60.1083 23.9737 60.5729 23.5375Z" fill="#F97316"/>
<path d="M147.527 55.7592H155.523C155.785 55.7592 156.01 55.5836 156.076 55.3315L160.095 39.5464L164.083 55.3315C164.146 55.5836 164.374 55.7592 164.636 55.7592H172.754C173.013 55.7592 173.239 55.5864 173.304 55.3372L179.98 30.0861C180.074 29.7263 179.803 29.3751 179.43 29.3751H173.361C173.096 29.3751 172.865 29.5564 172.805 29.8141L168.78 47.1798L164.59 29.8085C164.528 29.5536 164.3 29.3751 164.037 29.3751H156.318C156.056 29.3751 155.828 29.5536 155.765 29.8057L151.41 47.1854L148.077 29.8368C148.026 29.5706 147.792 29.3751 147.519 29.3751H140.335C139.956 29.3751 139.683 29.7348 139.788 30.0946L146.977 55.3457C147.045 55.5893 147.271 55.7592 147.524 55.7592H147.527Z" fill="#F97316"/>
<path d="M138.488 42.3194C138.488 49.8763 132.317 56 124.706 56C117.095 56 110.924 49.8735 110.924 42.3194C110.924 34.7653 117.095 28.6387 124.706 28.6387C132.317 28.6387 138.488 34.7653 138.488 42.3194ZM128.788 46.8824C131.106 43.8319 130.564 36.8528 126.143 36.0399C117.469 34.4424 117.127 47.9956 123.928 48.6923C125.735 48.8765 127.656 48.3694 128.788 46.8824Z" fill="#F97316"/>
<path d="M108.413 49.256L98.1595 49.239V22.4074C98.1595 22.0958 97.9058 21.8409 97.5894 21.8409H90.1867C89.8732 21.8409 89.6166 22.0958 89.6166 22.4074V55.1899C89.6195 55.5015 89.876 55.7564 90.1896 55.7564H108.407C108.721 55.7564 108.977 55.5043 108.977 55.1899V49.8225C108.977 49.5109 108.726 49.256 108.41 49.256H108.413Z" fill="#F97316"/>
</g>
<defs>
<clipPath id="clip0_213_1097">
<rect width="180" height="56" fill="white"/>
</clipPath>
</defs>
</svg>
